<?xml version="1.0" encoding="utf-8"?>
<!-- Generator: Adobe Illustrator 23.0.0, SVG Export Plug-In . SVG Version: 6.00 Build 0)  -->
<svg version="1.1" id="Calque_1" xmlns="http://www.w3.org/2000/svg" xmlns:xlink="http://www.w3.org/1999/xlink" x="0px" y="0px"
	 viewBox="-349 244.5 142.3 106.8" style="enable-background:new -349 244.5 142.3 106.8;" xml:space="preserve">
<style type="text/css">
	.st0{fill:#0076A8;}
	.st1{fill:#FFFFFF;}
	.st2{fill:#1D2762;}
</style>
<rect x="-298.4" y="269.1" class="st0" width="91.7" height="24.6"/>
<rect x="-337" y="288.3" class="st0" width="130.3" height="24.6"/>
<rect x="-294.2" y="307.5" class="st0" width="87.5" height="24.6"/>
<rect x="-278" y="326.7" class="st0" width="71.3" height="24.6"/>
<g>
	<path class="st1" d="M-284.3,281.8h-4.2v3.9h4.7v1.2h-6.1v-10.8h5.9v1.2h-4.4v3.4h4.2L-284.3,281.8L-284.3,281.8z"/>
	<path class="st1" d="M-280.3,276.1v6.4c0,2.4,1.1,3.4,2.5,3.4c1.6,0,2.6-1.1,2.6-3.4v-6.4h1.4v6.3c0,3.3-1.7,4.7-4.1,4.7
		c-2.2,0-3.9-1.3-3.9-4.6v-6.4H-280.3z"/>
	<path class="st1" d="M-271,276.3c0.7-0.1,1.7-0.2,2.7-0.2c1.5,0,2.4,0.3,3.1,0.9c0.5,0.5,0.8,1.2,0.8,2c0,1.4-0.9,2.4-2,2.8l0,0
		c0.8,0.3,1.3,1.1,1.6,2.2c0.4,1.5,0.6,2.5,0.8,3h-1.4c-0.2-0.3-0.4-1.2-0.7-2.6c-0.3-1.5-0.9-2-2.2-2.1h-1.3v4.7h-1.4V276.3z
		 M-269.6,281.2h1.4c1.5,0,2.4-0.8,2.4-2c0-1.4-1-2-2.5-2c-0.7,0-1.2,0.1-1.4,0.1v3.9H-269.6z"/>
	<path class="st1" d="M-252.8,281.4c0,3.7-2.3,5.7-5,5.7c-2.8,0-4.8-2.2-4.8-5.5c0-3.4,2.1-5.7,5-5.7
		C-254.7,275.9-252.8,278.2-252.8,281.4z M-261.2,281.6c0,2.3,1.2,4.4,3.4,4.4c2.2,0,3.5-2,3.5-4.5c0-2.1-1.1-4.4-3.4-4.4
		C-260,277.1-261.2,279.2-261.2,281.6z"/>
	<path class="st1" d="M-250.7,276.2c0.7-0.1,1.6-0.2,2.7-0.2c1.4,0,2.4,0.3,3,0.9c0.6,0.5,0.9,1.3,0.9,2.3s-0.3,1.7-0.8,2.3
		c-0.7,0.8-1.9,1.2-3.3,1.2c-0.4,0-0.8,0-1.1-0.1v4.3h-1.4L-250.7,276.2z M-249.3,281.4c0.3,0.1,0.7,0.1,1.2,0.1
		c1.7,0,2.7-0.8,2.7-2.3c0-1.4-1-2.1-2.5-2.1c-0.6,0-1.1,0-1.3,0.1L-249.3,281.4L-249.3,281.4z"/>
	<path class="st1" d="M-236.3,281.8h-4.2v3.9h4.7v1.2h-6.1v-10.8h5.8v1.2h-4.4v3.4h4.2V281.8z"/>
	<path class="st1" d="M-232,283.5l-1.1,3.4h-1.4l3.7-10.8h1.7l3.7,10.8h-1.6l-1.2-3.4H-232z M-228.4,282.4l-1.1-3.1
		c-0.2-0.7-0.4-1.3-0.6-2l0,0c-0.2,0.6-0.3,1.3-0.5,2l-1.1,3.1H-228.4z"/>
	<path class="st1" d="M-223.6,286.9v-10.8h1.5l3.5,5.5c0.8,1.3,1.4,2.4,1.9,3.5l0,0c-0.1-1.4-0.2-2.8-0.2-4.4v-4.5h1.3V287h-1.4
		l-3.4-5.5c-0.8-1.2-1.5-2.4-2-3.6l0,0c0.1,1.4,0.1,2.7,0.1,4.4v4.6H-223.6z"/>
</g>
<g>
	<path class="st1" d="M-328.4,295.4c0.7-0.1,1.6-0.2,2.7-0.2c1.4,0,2.4,0.3,3,0.9c0.6,0.5,0.9,1.3,0.9,2.3s-0.3,1.7-0.8,2.3
		c-0.7,0.8-1.9,1.2-3.3,1.2c-0.4,0-0.8,0-1.1-0.1v4.3h-1.4V295.4z M-327,300.6c0.3,0.1,0.7,0.1,1.2,0.1c1.7,0,2.7-0.8,2.7-2.3
		c0-1.4-1-2.1-2.5-2.1c-0.6,0-1.1,0-1.3,0.1v4.2H-327z"/>
	<path class="st1" d="M-319.2,302.7l-1.1,3.4h-1.4l3.7-10.8h1.7l3.7,10.8h-1.5l-1.2-3.4H-319.2z M-315.6,301.6l-1.1-3.1
		c-0.2-0.7-0.4-1.3-0.6-2l0,0c-0.2,0.6-0.3,1.3-0.5,2l-1.1,3.1H-315.6z"/>
	<path class="st1" d="M-310.8,295.5c0.7-0.1,1.7-0.2,2.7-0.2c1.5,0,2.4,0.3,3.1,0.9c0.5,0.5,0.8,1.2,0.8,2c0,1.4-0.9,2.4-2,2.8l0,0
		c0.8,0.3,1.3,1.1,1.6,2.2c0.4,1.5,0.6,2.5,0.8,3h-1.4c-0.2-0.3-0.4-1.2-0.7-2.6c-0.3-1.5-0.9-2-2.2-2.1h-1.3v4.7h-1.4L-310.8,295.5
		z M-309.4,300.4h1.4c1.5,0,2.4-0.8,2.4-2c0-1.4-1-2-2.5-2c-0.7,0-1.2,0.1-1.4,0.1v3.9H-309.4z"/>
	<path class="st1" d="M-301.9,295.3h1.4v9.6h4.6v1.2h-6V295.3z"/>
	<path class="st1" d="M-292.6,295.3v10.8h-1.4v-10.8H-292.6z"/>
	<path class="st1" d="M-288.2,302.7l-1.1,3.4h-1.4l3.7-10.8h1.7l3.7,10.8h-1.5l-1.2-3.4H-288.2z M-284.6,301.6l-1.1-3.1
		c-0.2-0.7-0.4-1.3-0.6-2l0,0c-0.2,0.6-0.3,1.3-0.5,2l-1.1,3.1H-284.6z"/>
	<path class="st1" d="M-270.8,301.4c-0.1-1.5-0.2-3.3-0.2-4.7l0,0c-0.4,1.3-0.8,2.6-1.4,4.1l-1.9,5.2h-1.1l-1.7-5.1
		c-0.5-1.5-0.9-2.9-1.2-4.2l0,0c0,1.3-0.1,3.2-0.2,4.8l-0.3,4.6h-1.3l0.8-10.8h1.8l1.8,5.2c0.4,1.3,0.8,2.5,1.1,3.6l0,0
		c0.3-1.1,0.7-2.3,1.1-3.6l1.9-5.2h1.8l0.7,10.8h-1.4L-270.8,301.4z"/>
	<path class="st1" d="M-261.1,301h-4.2v3.9h4.7v1.2h-6.1v-10.8h5.8v1.2h-4.4v3.4h4.2V301z"/>
	<path class="st1" d="M-258.5,306.1v-10.8h1.5l3.5,5.5c0.8,1.3,1.4,2.4,1.9,3.5l0,0c-0.1-1.4-0.2-2.8-0.2-4.4v-4.5h1.3v10.8h-1.4
		l-3.4-5.5c-0.8-1.2-1.5-2.4-2-3.6l0,0c0.1,1.4,0.1,2.7,0.1,4.5v4.6h-1.3V306.1z"/>
	<path class="st1" d="M-245.6,296.5h-3.3v-1.2h8v1.2h-3.3v9.6h-1.4V296.5z"/>
	<path class="st1" d="M-238.8,302.7l-1.1,3.4h-1.4l3.7-10.8h1.7l3.7,10.8h-1.5l-1.2-3.4H-238.8z M-235.3,301.6l-1.1-3.1
		c-0.2-0.7-0.4-1.3-0.6-2l0,0c-0.2,0.6-0.3,1.3-0.5,2l-1.1,3.1H-235.3z"/>
	<path class="st1" d="M-230.5,295.5c0.7-0.1,1.7-0.2,2.7-0.2c1.5,0,2.4,0.3,3.1,0.9c0.5,0.5,0.8,1.2,0.8,2c0,1.4-0.9,2.4-2,2.8l0,0
		c0.8,0.3,1.3,1.1,1.6,2.2c0.4,1.5,0.6,2.5,0.8,3h-1.4c-0.2-0.3-0.4-1.2-0.7-2.6c-0.3-1.5-0.9-2-2.2-2.1h-1.3v4.7h-1.4V295.5z
		 M-229.1,300.4h1.4c1.5,0,2.4-0.8,2.4-2c0-1.4-1-2-2.5-2c-0.7,0-1.2,0.1-1.4,0.1L-229.1,300.4L-229.1,300.4z"/>
	<path class="st1" d="M-219.3,306.1v-4.6l-3.4-6.2h1.6l1.5,3c0.4,0.8,0.7,1.5,1.1,2.2l0,0c0.3-0.7,0.7-1.4,1.1-2.2l1.6-3h1.6
		l-3.6,6.2v4.6H-219.3z"/>
</g>
<g>
	<path class="st1" d="M-285.6,314.7c0.7-0.1,1.7-0.2,2.7-0.2c1.5,0,2.4,0.3,3.1,0.9c0.5,0.5,0.8,1.2,0.8,2c0,1.4-0.9,2.4-2,2.8l0,0
		c0.8,0.3,1.3,1.1,1.6,2.2c0.4,1.5,0.6,2.5,0.8,3h-1.4c-0.2-0.3-0.4-1.2-0.7-2.6c-0.3-1.5-0.9-2-2.2-2.1h-1.3v4.7h-1.4V314.7z
		 M-284.3,319.6h1.4c1.5,0,2.4-0.8,2.4-2c0-1.4-1-2-2.5-2c-0.7,0-1.2,0.1-1.4,0.1v3.9H-284.3z"/>
	<path class="st1" d="M-271.1,320.2h-4.2v3.9h4.7v1.2h-6.1v-10.8h5.8v1.2h-4.4v3.4h4.2V320.2z"/>
	<path class="st1" d="M-268.7,323.6c0.6,0.4,1.5,0.7,2.5,0.7c1.4,0,2.3-0.8,2.3-1.8s-0.6-1.6-2-2.1c-1.8-0.6-2.8-1.5-2.8-3.1
		c0-1.7,1.4-2.9,3.5-2.9c1.1,0,1.9,0.3,2.4,0.5l-0.4,1.1c-0.4-0.2-1.1-0.5-2-0.5c-1.5,0-2,0.9-2,1.6c0,1,0.7,1.5,2.1,2.1
		c1.8,0.7,2.8,1.6,2.8,3.2c0,1.7-1.2,3.1-3.8,3.1c-1,0-2.2-0.3-2.8-0.7L-268.7,323.6z"/>
	<path class="st1" d="M-254.8,320.2h-4.2v3.9h4.7v1.2h-6.1v-10.8h5.8v1.2h-4.4v3.4h4.2V320.2z"/>
	<path class="st1" d="M-250.4,321.9l-1.1,3.4h-1.5l3.7-10.8h1.7l3.7,10.8h-1.5l-1.2-3.4H-250.4z M-246.9,320.8l-1.1-3.1
		c-0.2-0.7-0.4-1.3-0.6-2l0,0c-0.2,0.6-0.3,1.3-0.5,2l-1.1,3.1H-246.9z"/>
	<path class="st1" d="M-242.1,314.7c0.7-0.1,1.7-0.2,2.7-0.2c1.5,0,2.4,0.3,3.1,0.9c0.5,0.5,0.8,1.2,0.8,2c0,1.4-0.9,2.4-2,2.8l0,0
		c0.8,0.3,1.3,1.1,1.6,2.2c0.4,1.5,0.6,2.5,0.8,3h-1.4c-0.2-0.3-0.4-1.2-0.7-2.6c-0.3-1.5-0.9-2-2.2-2.1h-1.3v4.7h-1.4V314.7z
		 M-240.7,319.6h1.4c1.5,0,2.4-0.8,2.4-2c0-1.4-1-2-2.5-2c-0.7,0-1.2,0.1-1.4,0.1L-240.7,319.6L-240.7,319.6z"/>
	<path class="st1" d="M-225.6,324.9c-0.5,0.3-1.5,0.5-2.8,0.5c-3,0-5.3-1.9-5.3-5.5c0-3.4,2.3-5.7,5.6-5.7c1.3,0,2.2,0.3,2.6,0.5
		l-0.3,1.1c-0.5-0.3-1.3-0.4-2.2-0.4c-2.5,0-4.2,1.6-4.2,4.5c0,2.6,1.5,4.3,4.1,4.3c0.8,0,1.7-0.2,2.3-0.4L-225.6,324.9z"/>
	<path class="st1" d="M-222.1,314.5v4.5h5.2v-4.5h1.4v10.8h-1.4v-5.1h-5.2v5.1h-1.4v-10.8H-222.1z"/>
</g>
<g>
	<path class="st1" d="M-269.6,342.8c0.6,0.4,1.5,0.7,2.5,0.7c1.4,0,2.3-0.8,2.3-1.8s-0.6-1.6-2-2.1c-1.8-0.6-2.8-1.5-2.8-3.1
		c0-1.7,1.4-2.9,3.5-2.9c1.1,0,1.9,0.3,2.4,0.5l-0.4,1.1c-0.4-0.2-1.1-0.5-2-0.5c-1.5,0-2,0.9-2,1.6c0,1,0.7,1.5,2.1,2.1
		c1.8,0.7,2.8,1.6,2.8,3.2c0,1.7-1.2,3.1-3.8,3.1c-1,0-2.2-0.3-2.8-0.7L-269.6,342.8z"/>
	<path class="st1" d="M-255.7,339.4h-4.2v3.9h4.7v1.2h-6.1v-10.8h5.8v1.2h-4.4v3.4h4.2V339.4z"/>
	<path class="st1" d="M-253.1,333.9c0.7-0.1,1.7-0.2,2.7-0.2c1.5,0,2.4,0.3,3.1,0.9c0.5,0.5,0.8,1.2,0.8,2c0,1.4-0.9,2.4-2,2.8l0,0
		c0.8,0.3,1.3,1.1,1.6,2.2c0.4,1.5,0.6,2.5,0.8,3h-1.4c-0.2-0.3-0.4-1.2-0.7-2.6c-0.3-1.5-0.9-2-2.2-2.1h-1.3v4.7h-1.4V333.9z
		 M-251.7,338.8h1.4c1.5,0,2.4-0.8,2.4-2c0-1.4-1-2-2.5-2c-0.7,0-1.2,0.1-1.4,0.1L-251.7,338.8L-251.7,338.8z"/>
	<path class="st1" d="M-241.5,344.5l-3.5-10.8h1.5l1.7,5.3c0.5,1.5,0.9,2.8,1.2,4l0,0c0.3-1.2,0.8-2.6,1.2-4l1.8-5.3h1.5l-3.9,10.8
		H-241.5z"/>
	<path class="st1" d="M-233.3,333.7v10.8h-1.4v-10.8H-233.3z"/>
	<path class="st1" d="M-223,344.1c-0.5,0.3-1.5,0.5-2.8,0.5c-3,0-5.3-1.9-5.3-5.5c0-3.4,2.3-5.7,5.6-5.7c1.3,0,2.2,0.3,2.6,0.5
		l-0.3,1.1c-0.5-0.3-1.3-0.4-2.2-0.4c-2.5,0-4.2,1.6-4.2,4.5c0,2.6,1.5,4.3,4.1,4.3c0.8,0,1.7-0.2,2.3-0.4L-223,344.1z"/>
	<path class="st1" d="M-215.4,339.4h-4.2v3.9h4.7v1.2h-6.1v-10.8h5.8v1.2h-4.4v3.4h4.2V339.4z"/>
</g>
<rect x="-348.9" y="244.5" class="st2" width="50.5" height="24.6"/>
<g>
	<path class="st1" d="M-334.2,257.5h-4.1v3.2h4.5v1.6h-6.4v-10.8h6.2v1.6h-4.3v2.8h4.1V257.5z"/>
	<path class="st1" d="M-331.7,251.6c0.7-0.1,1.7-0.2,3-0.2c1.4,0,2.5,0.3,3.2,0.9c0.6,0.5,1.1,1.4,1.1,2.4s-0.3,1.9-0.9,2.4
		c-0.8,0.8-2,1.2-3.4,1.2c-0.4,0-0.7,0-1-0.1v4.1h-2V251.6z M-329.7,256.7c0.2,0.1,0.6,0.1,1,0.1c1.5,0,2.4-0.7,2.4-2
		c0-1.2-0.8-1.8-2.2-1.8c-0.5,0-0.9,0-1.1,0.1v3.6H-329.7z"/>
	<path class="st1" d="M-322.4,251.6c0.7-0.1,1.8-0.2,3-0.2c1.6,0,2.6,0.3,3.3,0.9c0.6,0.5,0.9,1.2,0.9,2.2c0,1.4-0.9,2.3-2,2.7l0,0
		c0.8,0.3,1.2,1,1.5,2.1c0.3,1.3,0.6,2.6,0.8,3h-2c-0.2-0.3-0.4-1.2-0.7-2.5c-0.3-1.4-0.8-1.9-1.9-1.9h-1v4.4h-2v-10.7H-322.4z
		 M-320.5,256.4h1.2c1.3,0,2.2-0.7,2.2-1.8c0-1.2-0.8-1.7-2.1-1.7c-0.6,0-1,0-1.2,0.1v3.4H-320.5z"/>
	<path class="st1" d="M-313,260.1c0.6,0.4,1.6,0.7,2.6,0.7c1.3,0,2-0.6,2-1.5c0-0.8-0.5-1.3-1.9-1.8c-1.8-0.6-2.9-1.6-2.9-3.1
		c0-1.8,1.5-3.1,3.8-3.1c1.2,0,2,0.3,2.6,0.5l-0.5,1.6c-0.4-0.2-1.1-0.5-2.1-0.5c-1.2,0-1.8,0.7-1.8,1.3c0,0.8,0.6,1.2,2.1,1.8
		c1.9,0.7,2.8,1.6,2.8,3.2c0,1.7-1.3,3.2-4.1,3.2c-1.1,0-2.3-0.3-2.9-0.7L-313,260.1z"/>
</g>
</svg>
